<svg xmlns="http://www.w3.org/2000/svg" xmlns:xlink="http://www.w3.org/1999/xlink" width="1040" height="754.72"><rect width="1040" height="754.72" rx="5" ry="5" class="a"/><svg y="0%" x="0%"><circle cx="20" cy="20" r="6" fill="#ff5f58"/><circle cx="40" cy="20" r="6" fill="#ffbd2e"/><circle cx="60" cy="20" r="6" fill="#18c132"/></svg><svg height="694.72" viewBox="0 0 100 69.472" width="1000" x="15" xmlns="http://www.w3.org/2000/svg" xmlns:xlink="http://www.w3.org/1999/xlink" y="50"><style>@keyframes o{0%{transform:translateX(-100px)}2.7%{transform:translateX(-200px)}2.83%{transform:translateX(-300px)}2.97%{transform:translateX(-400px)}3.1%{transform:translateX(-500px)}3.24%{transform:translateX(-600px)}3.37%{transform:translateX(-700px)}3.5%{transform:translateX(-800px)}3.64%{transform:translateX(-900px)}3.77%{transform:translateX(-1000px)}3.91%{transform:translateX(-1100px)}4.04%{transform:translateX(-1200px)}4.18%{transform:translateX(-1300px)}4.31%{transform:translateX(-1400px)}4.45%{transform:translateX(-1500px)}4.58%{transform:translateX(-1600px)}4.72%{transform:translateX(-1700px)}4.85%{transform:translateX(-1800px)}4.99%{transform:translateX(-1900px)}5.12%{transform:translateX(-2000px)}5.26%{transform:translateX(-2100px)}5.39%{transform:translateX(-2200px)}5.53%{transform:translateX(-2300px)}5.66%{transform:translateX(-2400px)}5.8%{transform:translateX(-2500px)}5.93%{transform:translateX(-2600px)}6.07%{transform:translateX(-2700px)}6.2%{transform:translateX(-2800px)}6.34%{transform:translateX(-2900px)}6.47%{transform:translateX(-3000px)}6.6%{transform:translateX(-3100px)}6.74%{transform:translateX(-3200px)}6.87%{transform:translateX(-3300px)}7.01%{transform:translateX(-3400px)}7.14%{transform:translateX(-3500px)}7.28%{transform:translateX(-3600px)}7.41%{transform:translateX(-3700px)}7.55%{transform:translateX(-3800px)}7.68%{transform:translateX(-3900px)}7.82%{transform:translateX(-4000px)}7.95%{transform:translateX(-4100px)}8.09%{transform:translateX(-4200px)}8.22%{transform:translateX(-4300px)}8.36%{transform:translateX(-4400px)}8.49%{transform:translateX(-4500px)}8.63%{transform:translateX(-4600px)}8.76%{transform:translateX(-4700px)}8.9%{transform:translateX(-4800px)}9.03%{transform:translateX(-4900px)}9.17%{transform:translateX(-5000px)}9.3%{transform:translateX(-5100px)}9.44%{transform:translateX(-5200px)}9.57%{transform:translateX(-5300px)}9.71%{transform:translateX(-5400px)}9.84%{transform:translateX(-5500px)}9.97%{transform:translateX(-5600px)}10.11%{transform:translateX(-5700px)}10.24%{transform:translateX(-5800px)}10.38%{transform:translateX(-5900px)}10.51%{transform:translateX(-6000px)}12.9%{transform:translateX(-6100px)}14.24%{transform:translateX(-6200px)}14.26%{transform:translateX(-6300px)}20.45%{transform:translateX(-6400px)}29.44%{transform:translateX(-6500px)}38.43%{transform:translateX(-6600px)}47.41%{transform:translateX(-6700px)}52.02%{transform:translateX(-6800px)}56.1%{transform:translateX(-6900px)}62.12%{transform:translateX(-7000px)}67.96%{transform:translateX(-7100px)}72.98%{transform:translateX(-7200px)}77.18%{transform:translateX(-7300px)}77.48%{transform:translateX(-7700px)}77.53%{transform:translateX(-7800px)}to{transform:translateX(-7900px)}}.a{fill:#282d35}.f,.g{fill:#b9c0cb;white-space:pre}.g{fill:#dbab79}.h{fill:#a8cc8c}.h,.i,.j{white-space:pre}.i{fill:#b9c0cb;font-weight:700}.j{fill:#e88388}</style><g font-family="Monaco,Consolas,Menlo,'Bitstream Vera Sans Mono','Powerline Symbols',monospace" font-size="1.67"><defs><symbol id="1"><text y="1.67" class="f">$</text><text x="2.004" y="1.67" class="f">npx</text></symbol><symbol id="2"><text y="1.67" class="f">$</text><text x="2.004" y="1.67" class="f">npx</text><text x="6.012" y="1.67" class="f">mcp-toolmetry</text></symbol><symbol id="3"><text y="1.67" class="f">$</text><text x="2.004" y="1.67" class="f">npx</text><text x="6.012" y="1.67" class="f">mcp-toolmetry</text><text x="20.04" y="1.67" class="f">measure</text></symbol><symbol id="4"><text y="1.67" class="f">$</text><text x="2.004" y="1.67" class="f">npx</text><text x="6.012" y="1.67" class="f">mcp-toolmetry</text><text x="20.04" y="1.67" class="f">measure</text><text x="28.056" y="1.67" class="f">scenarios/sqlite/sqlite.yaml</text></symbol><symbol id="5"><text y="1.67" class="f">$</text><text x="2.004" y="1.67" class="f">npx</text><text x="6.012" y="1.67" class="f">mcp-toolmetry</text><text x="20.04" y="1.67" class="f">measure</text><text x="28.056" y="1.67" class="f">scenarios/sqlite/sqlite.yaml</text><text x="57.114" y="1.67" class="f">-n</text></symbol><symbol id="6"><text y="1.67" class="f">$</text><text x="2.004" y="1.67" class="f">npx</text><text x="6.012" y="1.67" class="f">mcp-toolmetry</text><text x="20.04" y="1.67" class="f">measure</text><text x="28.056" y="1.67" class="f">scenarios/sqlite/sqlite.yaml</text><text x="57.114" y="1.67" class="f">-n</text><text x="60.12" y="1.67" class="f">1</text></symbol><symbol id="7"><text y="1.67" class="g">⚠</text><text x="2.004" y="1.67" class="g">runs=1</text><text x="9.018" y="1.67" class="g">is</text><text x="12.024" y="1.67" class="g">below</text><text x="18.036" y="1.67" class="g">the</text><text x="22.044" y="1.67" class="g">N=5</text><text x="26.052" y="1.67" class="g">reporting</text><text x="36.072" y="1.67" class="g">floor</text><text x="42.084" y="1.67" class="g">—</text><text x="44.088" y="1.67" class="g">fine</text><text x="49.098" y="1.67" class="g">for</text><text x="53.106" y="1.67" class="g">smoke</text><text x="59.118" y="1.67" class="g">tests,</text><text x="66.132" y="1.67" class="g">do</text><text x="69.138" y="1.67" class="g">not</text><text x="73.146" y="1.67" class="g">record</text><text x="80.16" y="1.67" class="g">these</text><text x="86.172" y="1.67" class="g">numbers.</text></symbol><symbol id="8"><text x="2.004" y="1.67" class="f">setup:</text><text x="9.018" y="1.67" class="f">sh</text><text x="12.024" y="1.67" class="f">scenarios/sqlite/setup-sandbox.sh</text></symbol><symbol id="9"><text x="2.004" y="1.67" class="f">count-rows</text><text x="13.026" y="1.67" class="f">run</text><text x="17.034" y="1.67" class="f">1/1:</text><text x="22.044" y="1.67" class="h">ok</text><text x="25.05" y="1.67" class="f">(read_query)</text></symbol><symbol id="10"><text x="2.004" y="1.67" class="f">aggregate-query</text><text x="18.036" y="1.67" class="f">run</text><text x="22.044" y="1.67" class="f">1/1:</text><text x="27.054" y="1.67" class="g">partial</text><text x="35.07" y="1.67" class="f">(list_tables,</text><text x="49.098" y="1.67" class="f">describe_table,</text><text x="65.13" y="1.67" class="f">read_query)</text></symbol><symbol id="11"><text x="2.004" y="1.67" class="f">join-query</text><text x="13.026" y="1.67" class="f">run</text><text x="17.034" y="1.67" class="f">1/1:</text><text x="22.044" y="1.67" class="g">partial</text><text x="30.06" y="1.67" class="f">(list_tables,</text><text x="44.088" y="1.67" class="f">describe_table,</text><text x="60.12" y="1.67" class="f">describe_table,</text><text x="76.152" y="1.67" class="f">read_query)</text></symbol><symbol id="12"><text x="2.004" y="1.67" class="f">insert-row</text><text x="13.026" y="1.67" class="f">run</text><text x="17.034" y="1.67" class="f">1/1:</text><text x="22.044" y="1.67" class="g">partial</text><text x="30.06" y="1.67" class="f">(list_tables,</text><text x="44.088" y="1.67" class="f">describe_table,</text><text x="60.12" y="1.67" class="f">write_query)</text></symbol><symbol id="13"><text x="2.004" y="1.67" class="f">update-row</text><text x="13.026" y="1.67" class="f">run</text><text x="17.034" y="1.67" class="f">1/1:</text><text x="22.044" y="1.67" class="h">ok</text><text x="25.05" y="1.67" class="f">(write_query)</text></symbol><symbol id="14"><text x="2.004" y="1.67" class="f">delete-row</text><text x="13.026" y="1.67" class="f">run</text><text x="17.034" y="1.67" class="f">1/1:</text><text x="22.044" y="1.67" class="h">ok</text><text x="25.05" y="1.67" class="f">(write_query)</text></symbol><symbol id="15"><text x="2.004" y="1.67" class="f">new-table</text><text x="12.024" y="1.67" class="f">run</text><text x="16.032" y="1.67" class="f">1/1:</text><text x="21.042" y="1.67" class="h">ok</text><text x="24.048" y="1.67" class="f">(create_table)</text></symbol><symbol id="16"><text x="2.004" y="1.67" class="f">what-tables</text><text x="14.028" y="1.67" class="f">run</text><text x="18.036" y="1.67" class="f">1/1:</text><text x="23.046" y="1.67" class="h">ok</text><text x="26.052" y="1.67" class="f">(list_tables)</text></symbol><symbol id="17"><text x="2.004" y="1.67" class="f">table-schema</text><text x="15.03" y="1.67" class="f">run</text><text x="19.038" y="1.67" class="f">1/1:</text><text x="24.048" y="1.67" class="h">ok</text><text x="27.054" y="1.67" class="f">(describe_table)</text></symbol><symbol id="18"><text x="2.004" y="1.67" class="f">record-insight</text><text x="17.034" y="1.67" class="f">run</text><text x="21.042" y="1.67" class="f">1/1:</text><text x="26.052" y="1.67" class="h">ok</text><text x="29.058" y="1.67" class="f">(append_insight)</text></symbol><symbol id="19"><text x="2.004" y="1.67" class="i">scenario</text><text x="24.048" y="1.67" class="i">hit</text><text x="28.056" y="1.67" class="i">rate</text><text x="41.082" y="1.67" class="i">args</text><text x="47.094" y="1.67" class="i">extra</text><text x="53.106" y="1.67" class="i">calls</text><text x="64.128" y="1.67" class="i">success</text></symbol><symbol id="20"><text x="2.004" y="1.67" class="f">count-rows</text><text x="28.056" y="1.67" class="h">100%</text><text x="41.082" y="1.67" class="h">100%</text><text x="56.112" y="1.67" class="h">0%</text><text x="67.134" y="1.67" class="h">100%</text></symbol><symbol id="21"><text x="2.004" y="1.67" class="f">aggregate-query</text><text x="28.056" y="1.67" class="h">100%</text><text x="41.082" y="1.67" class="h">100%</text><text x="54.108" y="1.67" class="j">100%</text><text x="69.138" y="1.67" class="j">0%</text></symbol><symbol id="22"><text x="2.004" y="1.67" class="f">join-query</text><text x="28.056" y="1.67" class="h">100%</text><text x="41.082" y="1.67" class="h">100%</text><text x="54.108" y="1.67" class="j">100%</text><text x="69.138" y="1.67" class="j">0%</text></symbol><symbol id="23"><text x="2.004" y="1.67" class="f">insert-row</text><text x="28.056" y="1.67" class="h">100%</text><text x="41.082" y="1.67" class="h">100%</text><text x="54.108" y="1.67" class="j">100%</text><text x="69.138" y="1.67" class="j">0%</text></symbol><symbol id="24"><text x="2.004" y="1.67" class="f">update-row</text><text x="28.056" y="1.67" class="h">100%</text><text x="41.082" y="1.67" class="h">100%</text><text x="56.112" y="1.67" class="h">0%</text><text x="67.134" y="1.67" class="h">100%</text></symbol><symbol id="25"><text x="2.004" y="1.67" class="f">delete-row</text><text x="28.056" y="1.67" class="h">100%</text><text x="41.082" y="1.67" class="h">100%</text><text x="56.112" y="1.67" class="h">0%</text><text x="67.134" y="1.67" class="h">100%</text></symbol><symbol id="26"><text x="2.004" y="1.67" class="f">new-table</text><text x="28.056" y="1.67" class="h">100%</text><text x="41.082" y="1.67" class="h">100%</text><text x="56.112" y="1.67" class="h">0%</text><text x="67.134" y="1.67" class="h">100%</text></symbol><symbol id="27"><text x="2.004" y="1.67" class="f">what-tables</text><text x="28.056" y="1.67" class="h">100%</text><text x="41.082" y="1.67" class="h">100%</text><text x="56.112" y="1.67" class="h">0%</text><text x="67.134" y="1.67" class="h">100%</text></symbol><symbol id="28"><text x="2.004" y="1.67" class="f">table-schema</text><text x="28.056" y="1.67" class="h">100%</text><text x="41.082" y="1.67" class="h">100%</text><text x="56.112" y="1.67" class="h">0%</text><text x="67.134" y="1.67" class="h">100%</text></symbol><symbol id="29"><text x="2.004" y="1.67" class="f">record-insight</text><text x="28.056" y="1.67" class="h">100%</text><text x="41.082" y="1.67" class="h">100%</text><text x="56.112" y="1.67" class="h">0%</text><text x="67.134" y="1.67" class="h">100%</text></symbol><symbol id="30"><text y="1.67" class="i">sqlite</text><text x="7.014" y="1.67" class="f">—</text><text x="9.018" y="1.67" class="f">10</text><text x="12.024" y="1.67" class="f">scenarios</text><text x="22.044" y="1.67" class="f">×</text><text x="24.048" y="1.67" class="f">1</text><text x="26.052" y="1.67" class="f">runs</text><text x="31.062" y="1.67" class="f">on</text><text x="34.068" y="1.67" style="white-space:pre" fill="#66c2cd">claude-haiku-4-5</text></symbol><symbol id="31"><text x="2.004" y="1.67" class="f">hit</text><text x="6.012" y="1.67" class="f">rate</text><text x="11.022" y="1.67" class="h">100%</text><text x="16.032" y="1.67" class="f">|</text><text x="18.036" y="1.67" class="f">arg</text><text x="22.044" y="1.67" class="f">correctness</text><text x="34.068" y="1.67" class="h">100%</text><text x="39.078" y="1.67" class="f">|</text><text x="41.082" y="1.67" class="f">extra-call</text><text x="52.104" y="1.67" class="f">rate</text><text x="57.114" y="1.67" class="j">30%</text><text x="61.122" y="1.67" class="f">|</text><text x="63.126" y="1.67" class="f">strict</text><text x="70.14" y="1.67" class="f">success</text><text x="78.156" y="1.67" style="white-space:pre" fill="#dbab79" font-weight="700">70%</text></symbol><symbol id="32"><text x="2.004" y="1.67" class="f">tokens:</text><text x="10.02" y="1.67" class="f">27678</text><text x="16.032" y="1.67" class="f">in</text><text x="19.038" y="1.67" class="f">/</text><text x="21.042" y="1.67" class="f">1496</text><text x="26.052" y="1.67" class="f">out</text><text x="30.06" y="1.67" class="f">—</text><text x="32.064" y="1.67" class="f">estimated</text><text x="42.084" y="1.67" class="f">cost</text><text x="47.094" y="1.67" class="f">$0.0352</text></symbol><symbol id="33"><text y="1.67" class="f">saved:</text><text x="7.014" y="1.67" class="f">results/2026-07-14T00-20-43-sqlite-baseline.json</text></symbol><symbol id="a"><path fill="transparent" d="M0 0h100v33H0z"/></symbol><symbol id="b"><path fill="#6f7683" d="M0 0h1.102v2.171H0z"/></symbol></defs><path class="a" d="M0 0h100v69.472H0z"/><g style="animation-duration:22.256s;animation-iteration-count:infinite;animation-name:o;animation-timing-function:steps(1,end)"><svg width="8000"><svg><use xlink:href="#a"/><use xlink:href="#b" x="-.004"/></svg><svg x="100"><use xlink:href="#a"/><use xlink:href="#b" x="1.996"/><text y="1.67" class="f">$</text></svg><svg x="200"><use xlink:href="#a"/><use xlink:href="#b" x="2.996"/><text y="1.67" class="f">$</text><text x="2.004" y="1.67" class="f">n</text></svg><svg x="300"><use xlink:href="#a"/><use xlink:href="#b" x="3.996"/><text y="1.67" class="f">$</text><text x="2.004" y="1.67" class="f">np</text></svg><svg x="400"><use xlink:href="#a"/><use xlink:href="#b" x="4.996"/><use xlink:href="#1"/></svg><svg x="500"><use xlink:href="#a"/><use xlink:href="#b" x="5.996"/><use xlink:href="#1"/></svg><svg x="600"><use xlink:href="#a"/><use xlink:href="#b" x="6.996"/><text y="1.67" class="f">$</text><text x="2.004" y="1.67" class="f">npx</text><text x="6.012" y="1.67" class="f">m</text></svg><svg x="700"><use xlink:href="#a"/><use xlink:href="#b" x="7.996"/><text y="1.67" class="f">$</text><text x="2.004" y="1.67" class="f">npx</text><text x="6.012" y="1.67" class="f">mc</text></svg><svg x="800"><use xlink:href="#a"/><use xlink:href="#b" x="8.996"/><text y="1.67" class="f">$</text><text x="2.004" y="1.67" class="f">npx</text><text x="6.012" y="1.67" class="f">mcp</text></svg><svg x="900"><use xlink:href="#a"/><use xlink:href="#b" x="9.996"/><text y="1.67" class="f">$</text><text x="2.004" y="1.67" class="f">npx</text><text x="6.012" y="1.67" class="f">mcp-</text></svg><svg x="1000"><use xlink:href="#a"/><use xlink:href="#b" x="10.996"/><text y="1.67" class="f">$</text><text x="2.004" y="1.67" class="f">npx</text><text x="6.012" y="1.67" class="f">mcp-t</text></svg><svg x="1100"><use xlink:href="#a"/><use xlink:href="#b" x="11.996"/><text y="1.67" class="f">$</text><text x="2.004" y="1.67" class="f">npx</text><text x="6.012" y="1.67" class="f">mcp-to</text></svg><svg x="1200"><use xlink:href="#a"/><use xlink:href="#b" x="12.996"/><text y="1.67" class="f">$</text><text x="2.004" y="1.67" class="f">npx</text><text x="6.012" y="1.67" class="f">mcp-too</text></svg><svg x="1300"><use xlink:href="#a"/><use xlink:href="#b" x="13.996"/><text y="1.67" class="f">$</text><text x="2.004" y="1.67" class="f">npx</text><text x="6.012" y="1.67" class="f">mcp-tool</text></svg><svg x="1400"><use xlink:href="#a"/><use xlink:href="#b" x="14.996"/><text y="1.67" class="f">$</text><text x="2.004" y="1.67" class="f">npx</text><text x="6.012" y="1.67" class="f">mcp-toolm</text></svg><svg x="1500"><use xlink:href="#a"/><use xlink:href="#b" x="15.996"/><text y="1.67" class="f">$</text><text x="2.004" y="1.67" class="f">npx</text><text x="6.012" y="1.67" class="f">mcp-toolme</text></svg><svg x="1600"><use xlink:href="#a"/><use xlink:href="#b" x="16.996"/><text y="1.67" class="f">$</text><text x="2.004" y="1.67" class="f">npx</text><text x="6.012" y="1.67" class="f">mcp-toolmet</text></svg><svg x="1700"><use xlink:href="#a"/><use xlink:href="#b" x="17.996"/><text y="1.67" class="f">$</text><text x="2.004" y="1.67" class="f">npx</text><text x="6.012" y="1.67" class="f">mcp-toolmetr</text></svg><svg x="1800"><use xlink:href="#a"/><use xlink:href="#b" x="18.996"/><use xlink:href="#2"/></svg><svg x="1900"><use xlink:href="#a"/><use xlink:href="#b" x="19.996"/><use xlink:href="#2"/></svg><svg x="2000"><use xlink:href="#a"/><use xlink:href="#b" x="20.996"/><text y="1.67" class="f">$</text><text x="2.004" y="1.67" class="f">npx</text><text x="6.012" y="1.67" class="f">mcp-toolmetry</text><text x="20.04" y="1.67" class="f">m</text></svg><svg x="2100"><use xlink:href="#a"/><use xlink:href="#b" x="21.996"/><text y="1.67" class="f">$</text><text x="2.004" y="1.67" class="f">npx</text><text x="6.012" y="1.67" class="f">mcp-toolmetry</text><text x="20.04" y="1.67" class="f">me</text></svg><svg x="2200"><use xlink:href="#a"/><use xlink:href="#b" x="22.996"/><text y="1.67" class="f">$</text><text x="2.004" y="1.67" class="f">npx</text><text x="6.012" y="1.67" class="f">mcp-toolmetry</text><text x="20.04" y="1.67" class="f">mea</text></svg><svg x="2300"><use xlink:href="#a"/><use xlink:href="#b" x="23.996"/><text y="1.67" class="f">$</text><text x="2.004" y="1.67" class="f">npx</text><text x="6.012" y="1.67" class="f">mcp-toolmetry</text><text x="20.04" y="1.67" class="f">meas</text></svg><svg x="2400"><use xlink:href="#a"/><use xlink:href="#b" x="24.996"/><text y="1.67" class="f">$</text><text x="2.004" y="1.67" class="f">npx</text><text x="6.012" y="1.67" class="f">mcp-toolmetry</text><text x="20.04" y="1.67" class="f">measu</text></svg><svg x="2500"><use xlink:href="#a"/><use xlink:href="#b" x="25.996"/><text y="1.67" class="f">$</text><text x="2.004" y="1.67" class="f">npx</text><text x="6.012" y="1.67" class="f">mcp-toolmetry</text><text x="20.04" y="1.67" class="f">measur</text></svg><svg x="2600"><use xlink:href="#a"/><use xlink:href="#b" x="26.996"/><use xlink:href="#3"/></svg><svg x="2700"><use xlink:href="#a"/><use xlink:href="#b" x="27.996"/><use xlink:href="#3"/></svg><svg x="2800"><use xlink:href="#a"/><use xlink:href="#b" x="28.996"/><text y="1.67" class="f">$</text><text x="2.004" y="1.67" class="f">npx</text><text x="6.012" y="1.67" class="f">mcp-toolmetry</text><text x="20.04" y="1.67" class="f">measure</text><text x="28.056" y="1.67" class="f">s</text></svg><svg x="2900"><use xlink:href="#a"/><use xlink:href="#b" x="29.996"/><text y="1.67" class="f">$</text><text x="2.004" y="1.67" class="f">npx</text><text x="6.012" y="1.67" class="f">mcp-toolmetry</text><text x="20.04" y="1.67" class="f">measure</text><text x="28.056" y="1.67" class="f">sc</text></svg><svg x="3000"><use xlink:href="#a"/><use xlink:href="#b" x="30.996"/><text y="1.67" class="f">$</text><text x="2.004" y="1.67" class="f">npx</text><text x="6.012" y="1.67" class="f">mcp-toolmetry</text><text x="20.04" y="1.67" class="f">measure</text><text x="28.056" y="1.67" class="f">sce</text></svg><svg x="3100"><use xlink:href="#a"/><use xlink:href="#b" x="31.996"/><text y="1.67" class="f">$</text><text x="2.004" y="1.67" class="f">npx</text><text x="6.012" y="1.67" class="f">mcp-toolmetry</text><text x="20.04" y="1.67" class="f">measure</text><text x="28.056" y="1.67" class="f">scen</text></svg><svg x="3200"><use xlink:href="#a"/><use xlink:href="#b" x="32.996"/><text y="1.67" class="f">$</text><text x="2.004" y="1.67" class="f">npx</text><text x="6.012" y="1.67" class="f">mcp-toolmetry</text><text x="20.04" y="1.67" class="f">measure</text><text x="28.056" y="1.67" class="f">scena</text></svg><svg x="3300"><use xlink:href="#a"/><use xlink:href="#b" x="33.996"/><text y="1.67" class="f">$</text><text x="2.004" y="1.67" class="f">npx</text><text x="6.012" y="1.67" class="f">mcp-toolmetry</text><text x="20.04" y="1.67" class="f">measure</text><text x="28.056" y="1.67" class="f">scenar</text></svg><svg x="3400"><use xlink:href="#a"/><use xlink:href="#b" x="34.996"/><text y="1.67" class="f">$</text><text x="2.004" y="1.67" class="f">npx</text><text x="6.012" y="1.67" class="f">mcp-toolmetry</text><text x="20.04" y="1.67" class="f">measure</text><text x="28.056" y="1.67" class="f">scenari</text></svg><svg x="3500"><use xlink:href="#a"/><use xlink:href="#b" x="35.996"/><text y="1.67" class="f">$</text><text x="2.004" y="1.67" class="f">npx</text><text x="6.012" y="1.67" class="f">mcp-toolmetry</text><text x="20.04" y="1.67" class="f">measure</text><text x="28.056" y="1.67" class="f">scenario</text></svg><svg x="3600"><use xlink:href="#a"/><use xlink:href="#b" x="36.996"/><text y="1.67" class="f">$</text><text x="2.004" y="1.67" class="f">npx</text><text x="6.012" y="1.67" class="f">mcp-toolmetry</text><text x="20.04" y="1.67" class="f">measure</text><text x="28.056" y="1.67" class="f">scenarios</text></svg><svg x="3700"><use xlink:href="#a"/><use xlink:href="#b" x="37.996"/><text y="1.67" class="f">$</text><text x="2.004" y="1.67" class="f">npx</text><text x="6.012" y="1.67" class="f">mcp-toolmetry</text><text x="20.04" y="1.67" class="f">measure</text><text x="28.056" y="1.67" class="f">scenarios/</text></svg><svg x="3800"><use xlink:href="#a"/><use xlink:href="#b" x="38.996"/><text y="1.67" class="f">$</text><text x="2.004" y="1.67" class="f">npx</text><text x="6.012" y="1.67" class="f">mcp-toolmetry</text><text x="20.04" y="1.67" class="f">measure</text><text x="28.056" y="1.67" class="f">scenarios/s</text></svg><svg x="3900"><use xlink:href="#a"/><use xlink:href="#b" x="39.996"/><text y="1.67" class="f">$</text><text x="2.004" y="1.67" class="f">npx</text><text x="6.012" y="1.67" class="f">mcp-toolmetry</text><text x="20.04" y="1.67" class="f">measure</text><text x="28.056" y="1.67" class="f">scenarios/sq</text></svg><svg x="4000"><use xlink:href="#a"/><use xlink:href="#b" x="40.996"/><text y="1.67" class="f">$</text><text x="2.004" y="1.67" class="f">npx</text><text x="6.012" y="1.67" class="f">mcp-toolmetry</text><text x="20.04" y="1.67" class="f">measure</text><text x="28.056" y="1.67" class="f">scenarios/sql</text></svg><svg x="4100"><use xlink:href="#a"/><use xlink:href="#b" x="41.996"/><text y="1.67" class="f">$</text><text x="2.004" y="1.67" class="f">npx</text><text x="6.012" y="1.67" class="f">mcp-toolmetry</text><text x="20.04" y="1.67" class="f">measure</text><text x="28.056" y="1.67" class="f">scenarios/sqli</text></svg><svg x="4200"><use xlink:href="#a"/><use xlink:href="#b" x="42.996"/><text y="1.67" class="f">$</text><text x="2.004" y="1.67" class="f">npx</text><text x="6.012" y="1.67" class="f">mcp-toolmetry</text><text x="20.04" y="1.67" class="f">measure</text><text x="28.056" y="1.67" class="f">scenarios/sqlit</text></svg><svg x="4300"><use xlink:href="#a"/><use xlink:href="#b" x="43.996"/><text y="1.67" class="f">$</text><text x="2.004" y="1.67" class="f">npx</text><text x="6.012" y="1.67" class="f">mcp-toolmetry</text><text x="20.04" y="1.67" class="f">measure</text><text x="28.056" y="1.67" class="f">scenarios/sqlite</text></svg><svg x="4400"><use xlink:href="#a"/><use xlink:href="#b" x="44.996"/><text y="1.67" class="f">$</text><text x="2.004" y="1.67" class="f">npx</text><text x="6.012" y="1.67" class="f">mcp-toolmetry</text><text x="20.04" y="1.67" class="f">measure</text><text x="28.056" y="1.67" class="f">scenarios/sqlite/</text></svg><svg x="4500"><use xlink:href="#a"/><use xlink:href="#b" x="45.996"/><text y="1.67" class="f">$</text><text x="2.004" y="1.67" class="f">npx</text><text x="6.012" y="1.67" class="f">mcp-toolmetry</text><text x="20.04" y="1.67" class="f">measure</text><text x="28.056" y="1.67" class="f">scenarios/sqlite/s</text></svg><svg x="4600"><use xlink:href="#a"/><use xlink:href="#b" x="46.996"/><text y="1.67" class="f">$</text><text x="2.004" y="1.67" class="f">npx</text><text x="6.012" y="1.67" class="f">mcp-toolmetry</text><text x="20.04" y="1.67" class="f">measure</text><text x="28.056" y="1.67" class="f">scenarios/sqlite/sq</text></svg><svg x="4700"><use xlink:href="#a"/><use xlink:href="#b" x="47.996"/><text y="1.67" class="f">$</text><text x="2.004" y="1.67" class="f">npx</text><text x="6.012" y="1.67" class="f">mcp-toolmetry</text><text x="20.04" y="1.67" class="f">measure</text><text x="28.056" y="1.67" class="f">scenarios/sqlite/sql</text></svg><svg x="4800"><use xlink:href="#a"/><use xlink:href="#b" x="48.996"/><text y="1.67" class="f">$</text><text x="2.004" y="1.67" class="f">npx</text><text x="6.012" y="1.67" class="f">mcp-toolmetry</text><text x="20.04" y="1.67" class="f">measure</text><text x="28.056" y="1.67" class="f">scenarios/sqlite/sqli</text></svg><svg x="4900"><use xlink:href="#a"/><use xlink:href="#b" x="49.996"/><text y="1.67" class="f">$</text><text x="2.004" y="1.67" class="f">npx</text><text x="6.012" y="1.67" class="f">mcp-toolmetry</text><text x="20.04" y="1.67" class="f">measure</text><text x="28.056" y="1.67" class="f">scenarios/sqlite/sqlit</text></svg><svg x="5000"><use xlink:href="#a"/><use xlink:href="#b" x="50.996"/><text y="1.67" class="f">$</text><text x="2.004" y="1.67" class="f">npx</text><text x="6.012" y="1.67" class="f">mcp-toolmetry</text><text x="20.04" y="1.67" class="f">measure</text><text x="28.056" y="1.67" class="f">scenarios/sqlite/sqlite</text></svg><svg x="5100"><use xlink:href="#a"/><use xlink:href="#b" x="51.996"/><text y="1.67" class="f">$</text><text x="2.004" y="1.67" class="f">npx</text><text x="6.012" y="1.67" class="f">mcp-toolmetry</text><text x="20.04" y="1.67" class="f">measure</text><text x="28.056" y="1.67" class="f">scenarios/sqlite/sqlite.</text></svg><svg x="5200"><use xlink:href="#a"/><use xlink:href="#b" x="52.996"/><text y="1.67" class="f">$</text><text x="2.004" y="1.67" class="f">npx</text><text x="6.012" y="1.67" class="f">mcp-toolmetry</text><text x="20.04" y="1.67" class="f">measure</text><text x="28.056" y="1.67" class="f">scenarios/sqlite/sqlite.y</text></svg><svg x="5300"><use xlink:href="#a"/><use xlink:href="#b" x="53.996"/><text y="1.67" class="f">$</text><text x="2.004" y="1.67" class="f">npx</text><text x="6.012" y="1.67" class="f">mcp-toolmetry</text><text x="20.04" y="1.67" class="f">measure</text><text x="28.056" y="1.67" class="f">scenarios/sqlite/sqlite.ya</text></svg><svg x="5400"><use xlink:href="#a"/><use xlink:href="#b" x="54.996"/><text y="1.67" class="f">$</text><text x="2.004" y="1.67" class="f">npx</text><text x="6.012" y="1.67" class="f">mcp-toolmetry</text><text x="20.04" y="1.67" class="f">measure</text><text x="28.056" y="1.67" class="f">scenarios/sqlite/sqlite.yam</text></svg><svg x="5500"><use xlink:href="#a"/><use xlink:href="#b" x="55.996"/><use xlink:href="#4"/></svg><svg x="5600"><use xlink:href="#a"/><use xlink:href="#b" x="56.996"/><use xlink:href="#4"/></svg><svg x="5700"><use xlink:href="#a"/><use xlink:href="#b" x="57.996"/><text y="1.67" class="f">$</text><text x="2.004" y="1.67" class="f">npx</text><text x="6.012" y="1.67" class="f">mcp-toolmetry</text><text x="20.04" y="1.67" class="f">measure</text><text x="28.056" y="1.67" class="f">scenarios/sqlite/sqlite.yaml</text><text x="57.114" y="1.67" class="f">-</text></svg><svg x="5800"><use xlink:href="#a"/><use xlink:href="#b" x="58.996"/><use xlink:href="#5"/></svg><svg x="5900"><use xlink:href="#a"/><use xlink:href="#b" x="59.996"/><use xlink:href="#5"/></svg><svg x="6000"><use xlink:href="#a"/><use xlink:href="#b" x="60.996"/><use xlink:href="#6"/></svg><svg x="6100"><use xlink:href="#a"/><use xlink:href="#b" x="-.004" y="2.146"/><use xlink:href="#6"/></svg><svg x="6200"><use xlink:href="#a"/><use xlink:href="#b" x="-.004" y="4.317"/><use xlink:href="#6"/><use xlink:href="#7" y="2.171"/></svg><svg x="6300"><use xlink:href="#a"/><use xlink:href="#b" x="-.004" y="6.488"/><use xlink:href="#6"/><use xlink:href="#7" y="2.171"/><use xlink:href="#8" y="4.342"/></svg><svg x="6400"><use xlink:href="#a"/><use xlink:href="#b" x="-.004" y="8.659"/><use xlink:href="#6"/><use xlink:href="#7" y="2.171"/><use xlink:href="#8" y="4.342"/><use xlink:href="#9" y="6.513"/></svg><svg x="6500"><use xlink:href="#a"/><use xlink:href="#b" x="-.004" y="10.83"/><use xlink:href="#6"/><use xlink:href="#7" y="2.171"/><use xlink:href="#8" y="4.342"/><use xlink:href="#9" y="6.513"/><use xlink:href="#10" y="8.684"/></svg><svg x="6600"><use xlink:href="#a"/><use xlink:href="#b" x="-.004" y="13.001"/><use xlink:href="#6"/><use xlink:href="#7" y="2.171"/><use xlink:href="#8" y="4.342"/><use xlink:href="#9" y="6.513"/><use xlink:href="#10" y="8.684"/><use xlink:href="#11" y="10.855"/></svg><svg x="6700"><use xlink:href="#a"/><use xlink:href="#b" x="-.004" y="15.172"/><use xlink:href="#6"/><use xlink:href="#7" y="2.171"/><use xlink:href="#8" y="4.342"/><use xlink:href="#9" y="6.513"/><use xlink:href="#10" y="8.684"/><use xlink:href="#11" y="10.855"/><use xlink:href="#12" y="13.026"/></svg><svg x="6800"><use xlink:href="#a"/><use xlink:href="#b" x="-.004" y="17.343"/><use xlink:href="#6"/><use xlink:href="#7" y="2.171"/><use xlink:href="#8" y="4.342"/><use xlink:href="#9" y="6.513"/><use xlink:href="#10" y="8.684"/><use xlink:href="#11" y="10.855"/><use xlink:href="#12" y="13.026"/><use xlink:href="#13" y="15.197"/></svg><svg x="6900"><use xlink:href="#a"/><use xlink:href="#b" x="-.004" y="19.514"/><use xlink:href="#6"/><use xlink:href="#7" y="2.171"/><use xlink:href="#8" y="4.342"/><use xlink:href="#9" y="6.513"/><use xlink:href="#10" y="8.684"/><use xlink:href="#11" y="10.855"/><use xlink:href="#12" y="13.026"/><use xlink:href="#13" y="15.197"/><use xlink:href="#14" y="17.368"/></svg><svg x="7000"><use xlink:href="#a"/><use xlink:href="#b" x="-.004" y="21.685"/><use xlink:href="#6"/><use xlink:href="#7" y="2.171"/><use xlink:href="#8" y="4.342"/><use xlink:href="#9" y="6.513"/><use xlink:href="#10" y="8.684"/><use xlink:href="#11" y="10.855"/><use xlink:href="#12" y="13.026"/><use xlink:href="#13" y="15.197"/><use xlink:href="#14" y="17.368"/><use xlink:href="#15" y="19.539"/></svg><svg x="7100"><use xlink:href="#a"/><use xlink:href="#b" x="-.004" y="23.856"/><use xlink:href="#6"/><use xlink:href="#7" y="2.171"/><use xlink:href="#8" y="4.342"/><use xlink:href="#9" y="6.513"/><use xlink:href="#10" y="8.684"/><use xlink:href="#11" y="10.855"/><use xlink:href="#12" y="13.026"/><use xlink:href="#13" y="15.197"/><use xlink:href="#14" y="17.368"/><use xlink:href="#15" y="19.539"/><use xlink:href="#16" y="21.71"/></svg><svg x="7200"><use xlink:href="#a"/><use xlink:href="#b" x="-.004" y="26.027"/><use xlink:href="#6"/><use xlink:href="#7" y="2.171"/><use xlink:href="#8" y="4.342"/><use xlink:href="#9" y="6.513"/><use xlink:href="#10" y="8.684"/><use xlink:href="#11" y="10.855"/><use xlink:href="#12" y="13.026"/><use xlink:href="#13" y="15.197"/><use xlink:href="#14" y="17.368"/><use xlink:href="#15" y="19.539"/><use xlink:href="#16" y="21.71"/><use xlink:href="#17" y="23.881"/></svg><svg x="7300"><use xlink:href="#a"/><use xlink:href="#b" x="-.004" y="28.198"/><use xlink:href="#6"/><use xlink:href="#7" y="2.171"/><use xlink:href="#8" y="4.342"/><use xlink:href="#9" y="6.513"/><use xlink:href="#10" y="8.684"/><use xlink:href="#11" y="10.855"/><use xlink:href="#12" y="13.026"/><use xlink:href="#13" y="15.197"/><use xlink:href="#14" y="17.368"/><use xlink:href="#15" y="19.539"/><use xlink:href="#16" y="21.71"/><use xlink:href="#17" y="23.881"/><use xlink:href="#18" y="26.052"/></svg><svg x="7400"><use xlink:href="#a"/><use xlink:href="#b" x="-.004" y="30.369"/><use xlink:href="#6"/><use xlink:href="#7" y="2.171"/><use xlink:href="#8" y="4.342"/><use xlink:href="#9" y="6.513"/><use xlink:href="#10" y="8.684"/><use xlink:href="#11" y="10.855"/><use xlink:href="#12" y="13.026"/><use xlink:href="#13" y="15.197"/><use xlink:href="#14" y="17.368"/><use xlink:href="#15" y="19.539"/><use xlink:href="#16" y="21.71"/><use xlink:href="#17" y="23.881"/><use xlink:href="#18" y="26.052"/></svg><svg x="7500"><use xlink:href="#a"/><use xlink:href="#b" x="1.996" y="49.908"/><use xlink:href="#6"/><use xlink:href="#7" y="2.171"/><use xlink:href="#8" y="4.342"/><use xlink:href="#9" y="6.513"/><use xlink:href="#10" y="8.684"/><use xlink:href="#11" y="10.855"/><use xlink:href="#12" y="13.026"/><use xlink:href="#13" y="15.197"/><use xlink:href="#14" y="17.368"/><use xlink:href="#15" y="19.539"/><use xlink:href="#16" y="21.71"/><use xlink:href="#17" y="23.881"/><use xlink:href="#18" y="26.052"/><use xlink:href="#19" y="30.394"/><use xlink:href="#20" y="32.565"/><use xlink:href="#21" y="34.736"/><use xlink:href="#22" y="36.907"/><use xlink:href="#23" y="39.078"/><use xlink:href="#24" y="41.249"/><use xlink:href="#25" y="43.42"/><use xlink:href="#26" y="45.591"/><use xlink:href="#27" y="47.762"/></svg><svg x="7600"><use xlink:href="#a"/><use xlink:href="#b" x="-.004" y="60.763"/><use xlink:href="#6"/><use xlink:href="#7" y="2.171"/><use xlink:href="#8" y="4.342"/><use xlink:href="#9" y="6.513"/><use xlink:href="#10" y="8.684"/><use xlink:href="#11" y="10.855"/><use xlink:href="#12" y="13.026"/><use xlink:href="#13" y="15.197"/><use xlink:href="#14" y="17.368"/><use xlink:href="#15" y="19.539"/><use xlink:href="#16" y="21.71"/><use xlink:href="#17" y="23.881"/><use xlink:href="#18" y="26.052"/><use xlink:href="#19" y="30.394"/><use xlink:href="#20" y="32.565"/><use xlink:href="#21" y="34.736"/><use xlink:href="#22" y="36.907"/><use xlink:href="#23" y="39.078"/><use xlink:href="#24" y="41.249"/><use xlink:href="#25" y="43.42"/><use xlink:href="#26" y="45.591"/><use xlink:href="#27" y="47.762"/><use xlink:href="#28" y="49.933"/><use xlink:href="#29" y="52.104"/><use xlink:href="#30" y="56.446"/><use xlink:href="#31" y="58.617"/></svg><svg x="7700"><use xlink:href="#a"/><use xlink:href="#b" x="-.004" y="62.934"/><use xlink:href="#6"/><use xlink:href="#7" y="2.171"/><use xlink:href="#8" y="4.342"/><use xlink:href="#9" y="6.513"/><use xlink:href="#10" y="8.684"/><use xlink:href="#11" y="10.855"/><use xlink:href="#12" y="13.026"/><use xlink:href="#13" y="15.197"/><use xlink:href="#14" y="17.368"/><use xlink:href="#15" y="19.539"/><use xlink:href="#16" y="21.71"/><use xlink:href="#17" y="23.881"/><use xlink:href="#18" y="26.052"/><use xlink:href="#19" y="30.394"/><use xlink:href="#20" y="32.565"/><use xlink:href="#21" y="34.736"/><use xlink:href="#22" y="36.907"/><use xlink:href="#23" y="39.078"/><use xlink:href="#24" y="41.249"/><use xlink:href="#25" y="43.42"/><use xlink:href="#26" y="45.591"/><use xlink:href="#27" y="47.762"/><use xlink:href="#28" y="49.933"/><use xlink:href="#29" y="52.104"/><use xlink:href="#30" y="56.446"/><use xlink:href="#31" y="58.617"/><use xlink:href="#32" y="60.788"/></svg><svg x="7800"><use xlink:href="#a"/><use xlink:href="#b" x="-.004" y="67.276"/><use xlink:href="#6"/><use xlink:href="#7" y="2.171"/><use xlink:href="#8" y="4.342"/><use xlink:href="#9" y="6.513"/><use xlink:href="#10" y="8.684"/><use xlink:href="#11" y="10.855"/><use xlink:href="#12" y="13.026"/><use xlink:href="#13" y="15.197"/><use xlink:href="#14" y="17.368"/><use xlink:href="#15" y="19.539"/><use xlink:href="#16" y="21.71"/><use xlink:href="#17" y="23.881"/><use xlink:href="#18" y="26.052"/><use xlink:href="#19" y="30.394"/><use xlink:href="#20" y="32.565"/><use xlink:href="#21" y="34.736"/><use xlink:href="#22" y="36.907"/><use xlink:href="#23" y="39.078"/><use xlink:href="#24" y="41.249"/><use xlink:href="#25" y="43.42"/><use xlink:href="#26" y="45.591"/><use xlink:href="#27" y="47.762"/><use xlink:href="#28" y="49.933"/><use xlink:href="#29" y="52.104"/><use xlink:href="#30" y="56.446"/><use xlink:href="#31" y="58.617"/><use xlink:href="#32" y="60.788"/><use xlink:href="#33" y="65.13"/></svg><svg x="7900"><use xlink:href="#a"/><use xlink:href="#b" x="-.004" y="67.276"/><use xlink:href="#6"/><use xlink:href="#7" y="2.171"/><use xlink:href="#8" y="4.342"/><use xlink:href="#9" y="6.513"/><use xlink:href="#10" y="8.684"/><use xlink:href="#11" y="10.855"/><use xlink:href="#12" y="13.026"/><use xlink:href="#13" y="15.197"/><use xlink:href="#14" y="17.368"/><use xlink:href="#15" y="19.539"/><use xlink:href="#16" y="21.71"/><use xlink:href="#17" y="23.881"/><use xlink:href="#18" y="26.052"/><use xlink:href="#19" y="30.394"/><use xlink:href="#20" y="32.565"/><use xlink:href="#21" y="34.736"/><use xlink:href="#22" y="36.907"/><use xlink:href="#23" y="39.078"/><use xlink:href="#24" y="41.249"/><use xlink:href="#25" y="43.42"/><use xlink:href="#26" y="45.591"/><use xlink:href="#27" y="47.762"/><use xlink:href="#28" y="49.933"/><use xlink:href="#29" y="52.104"/><use xlink:href="#30" y="56.446"/><use xlink:href="#31" y="58.617"/><use xlink:href="#32" y="60.788"/><use xlink:href="#33" y="65.13"/></svg></svg></g></g></svg></svg>